<?xml version="1.0" encoding="UTF-8"?>
<svg xmlns="http://www.w3.org/2000/svg" version="1.1" viewBox="0 0 189.2 49.2">
  <defs>
    <style>
      .cls-1 {
        font-size: 18.4px;
      }

      .cls-1, .cls-2 {
        font-family: ApexNew-MediumItalic, 'Apex New';
        font-weight: 500;
      }

      .cls-1, .cls-3 {
        fill: #9e4a9b;
      }

      .cls-1, .cls-4, .cls-5 {
        font-style: italic;
      }

      .cls-6 {
        fill: #f3ea1f;
      }

      .cls-7, .cls-4 {
        font-family: ApexNew-LightItalic, 'Apex New';
        font-weight: 300;
      }

      .cls-8 {
        fill: #ec174d;
      }

      .cls-4 {
        font-size: 17.6px;
      }

      .cls-4, .cls-5 {
        fill: #fff;
      }

      .cls-5 {
        font-size: 29px;
      }
    </style>
  </defs>
  <!-- Generator: Adobe Illustrator 28.6.0, SVG Export Plug-In . SVG Version: 1.2.0 Build 709)  -->
  <g>
    <g id="Layer_1">
      <g>
        <path class="cls-3" d="M14.1,24v-1.8h-.3c-2.2,0-3.3-1.2-3.3-3.7v-7.3c0-4.3-2.4-6.8-7.3-7.3v3.7c2.4.2,3.7,1.4,3.7,3.7v7.3c0,2.1.8,3.9,2.5,5.5h0s4.8,0,4.8,0Z"/>
        <path class="cls-6" d="M6.8,29.5v7.3c0,2.2-1.2,3.5-3.7,3.7v3.7c4.9-.6,7.3-3,7.3-7.3v-7.3c0-2.4,1.1-3.7,3.3-3.7h.3v-1.8h-4.8c-1.7,1.5-2.5,3.4-2.5,5.5Z"/>
      </g>
      <text/>
      <path class="cls-3" d="M14.1,24v1.8h.3c2.2,0,3.3,1.2,3.3,3.7v7.3c0,4.3,2.4,6.8,7.3,7.3v-3.7c-2.4-.2-3.7-1.4-3.7-3.7v-7.3c0-2.1-.8-3.9-2.5-5.5h0s-4.8,0-4.8,0Z"/>
      <path class="cls-8" d="M21.4,18.5v-7.3c0-2.2,1.2-3.5,3.7-3.7v-3.7c-4.9.6-7.3,3-7.3,7.3v7.3c0,2.4-1.1,3.7-3.3,3.7h-.3v1.8h4.8c1.7-1.5,2.5-3.4,2.5-5.5Z"/>
      <text><tspan class="cls-1"><tspan x="28.2" y="44.4">FullStack</tspan></tspan></text>
      <text class="cls-5" transform="translate(28.2 25.5)"><tspan class="cls-7" x="0" y="0">Edo</tspan><tspan class="cls-2" x="46.8" y="0">Barrueto</tspan></text>
      <text class="cls-4" transform="translate(110 44.4)"><tspan x="0" y="0">Developer</tspan></text>
      <circle class="cls-6" cx="106.6" cy="39.1" r="2.2"/>
    </g>
  </g>
</svg>